# WaveFront *.obj file (generated by CINEMA 4D)

v -200 0 200
v 200 0 200
v -200 0 -200
v 200 0 -200
v -200 0 10
v 200 0 10
v -200 0 -10
v 200 0 -10
v -10 0 200
v -10 0 -200
v -10 0 10
v -10 0 -10
v 10 0 200
v 10 0 -200
v 10 0 10
v 10 0 -10
# 16 vertices

vn 0 1 0
# 1 normal

o ground.surface
usemtl default
f 13//1 2//1 6//1 15//1
f 15//1 6//1 8//1 16//1
f 12//1 10//1 3//1 7//1
f 11//1 5//1 1//1 9//1
f 12//1 7//1 5//1 11//1
f 12//1 16//1 14//1 10//1
f 15//1 11//1 9//1 13//1
f 16//1 8//1 4//1 14//1

v -10 0 10
v 10 0 10
v -10 0 -10
v 10 0 -10
# 4 vertices

# 0 normal

o ground.stage
usemtl default
f 18//1 20//1 19//1 17//1

v 10 -40 10
v 10 -40 -10
v -10 -40 10
v -10 -40 -10
# 4 vertices

vn -1 0 0
vn 0 0 -1
vn 0 0 1
vn 1 0 0
# 4 normals

o ground.hole
usemtl default
f 16//2 22//2 21//2 15//2
f 15//3 21//3 23//3 11//3
f 12//4 24//4 22//4 16//4
f 11//5 23//5 24//5 12//5

