<!-- Generator: Adobe Illustrator 21.0.0, SVG Export Plug-In  -->
<svg version="1.1"
	 xmlns="http://www.w3.org/2000/svg" xmlns:xlink="http://www.w3.org/1999/xlink" xmlns:a="http://ns.adobe.com/AdobeSVGViewerExtensions/3.0/"
	 x="0px" y="0px" width="200px" height="7px" viewBox="0 0 200 7" style="enable-background:new 0 0 200 7;" xml:space="preserve">
<style type="text/css">
	.st0{fill:none;stroke:#5200ff;stroke-miterlimit:10;}
</style>
<defs>
</defs>
<path class="st0" d="M0,0.5c5.9,0,5.9,6,11.8,6c5.9,0,5.9-6,11.8-6c5.9,0,5.9,6,11.8,6c5.9,0,5.9-6,11.8-6c5.9,0,5.9,6,11.8,6
	c5.9,0,5.9-6,11.8-6c5.9,0,5.9,6,11.8,6c5.9,0,5.9-6,11.8-6c5.9,0,5.9,6,11.8,6c5.9,0,5.9-6,11.8-6c5.9,0,5.9,6,11.8,6
	c5.9,0,5.9-6,11.8-6c5.9,0,5.9,6,11.8,6c5.9,0,5.9-6,11.8-6c5.9,0,5.9,6,11.8,6c5.9,0,5.9-6,11.8-6c5.9,0,5.9,6,11.8,6"/>
</svg>
